<svg width="200" height="50" viewBox="0 0 200 50" fill="none" xmlns="http://www.w3.org/2000/svg">
  <path d="M10 10H40V40H10V10Z" fill="#2563EB" />
  <path d="M50 10H80V40H50V10Z" fill="#1E40AF" />
  <path d="M95 20 L100 33 L105 20 H107 L112 33 L117 20 H120 L113 37 H111 L106 25 L101 37 H99 L92 20 H95Z" fill="#1E40AF" />
  <path d="M122 20 L125 23 L128 20 H132 L127 25 L132 33 V37 H128 V33 L122 25 V37 H118 V20 H122Z" fill="#1E40AF" />
  <path d="M134 20 H145 V23 H138 V27 H144 V30 H138 V34 H145 V37 H134 V20Z" fill="#1E40AF" />
  <path d="M149 20 H153 V34 H163 V37 H149 V20Z" fill="#1E40AF" />
  <path d="M165 20 H169 V37 H165 V20Z" fill="#1E40AF" />
  <path d="M173 20 H190 V23 H177 V27 H184 C186 27 187 27.5 188 28.5 C189 29.5 189.5 31 189.5 33 C189.5 35 189 36.5 188 37.5 C187 38.5 185.5 39 183.5 39 H173 V20ZM177 36 H183 C184 36 184.5 35.7 185 35.2 C185.5 34.7 185.7 34 185.7 33 C185.7 32 185.5 31.3 185 30.8 C184.5 30.3 184 30 183 30 H177 V36Z" fill="#1E40AF" />
</svg> 